<svg xmlns="http://www.w3.org/2000/svg" width="1.522em" height=".75em" viewBox="97 -714 1477 728" aria-hidden="true" focusable="false"><g fill="currentColor"><path transform="translate(0 0) scale(1 -1)" d="M663 0L558 0L176 593L172 593Q174 558 177 506Q180 454 180 399L180 0L97 0L97 714L201 714L582 123L586 123Q585 139 583.5 171Q582 203 580.5 241Q579 279 579 311L579 714L663 714Z"/><path transform="translate(760 0) scale(1 -1)" d="M533 536L533 0L461 0L448 71L444 71Q418 29 372 9.5Q326 -10 274 -10Q177 -10 128 36.5Q79 83 79 185L79 536L168 536L168 191Q168 63 287 63Q376 63 410.5 113Q445 163 445 257L445 536Z"/><path transform="translate(1378 0) scale(1 -1)" d="M72 54Q72 91 90 106Q108 121 133 121Q159 121 177.5 106Q196 91 196 54Q196 18 177.5 2Q159 -14 133 -14Q108 -14 90 2Q72 18 72 54Z"/></g></svg>
