<svg xmlns="http://www.w3.org/2000/svg" width="0.889em" height=".75em" viewBox="72 -940 1131 954" aria-hidden="true" focusable="false"><g fill="currentColor"><path transform="translate(0 0) scale(1 -1)" d="M72 54Q72 91 90 106Q108 121 133 121Q159 121 177.5 106Q196 91 196 54Q196 18 177.5 2Q159 -14 133 -14Q108 -14 90 2Q72 18 72 54Z"/><path transform="translate(268 0) scale(1 -1)" d="M23 704L11 758Q26 761 37 764Q48 767 58 769Q39 782 25 803Q11 824 11 849Q11 894 42.5 917Q74 940 114 940Q137 940 161 932L153 882Q143 884 134 886Q125 888 114 888Q65 888 65 852Q65 826 84.5 809Q104 792 123 787Q161 798 190 809L206 758Q182 749 149.5 739Q117 729 84 720Q51 711 23 704ZM89 0L72 644L153 644L170 0Z"/><path transform="translate(503 0) scale(1 -1)" d="M72 54Q72 91 90 106Q108 121 133 121Q159 121 177.5 106Q196 91 196 54Q196 18 177.5 2Q159 -14 133 -14Q108 -14 90 2Q72 18 72 54Z"/><path transform="translate(771 0) scale(1 -1)" d="M35 45L75 114Q95 101 131 89Q167 77 215 77Q289 77 320 99.5Q351 122 351 162Q351 182 342.5 211.5Q334 241 306 291.5Q278 342 220 424L289 469Q369 359 400.5 282Q432 205 432 157Q432 117 412 79.5Q392 42 345 18Q298 -6 215 -6Q160 -6 113 7.5Q66 21 35 45Z"/></g></svg>
