<svg xmlns="http://www.w3.org/2000/svg" width="1.498em" height=".75em" viewBox="97 -760 1538 770" aria-hidden="true" focusable="false"><g fill="currentColor"><path transform="translate(0 0) scale(1 -1)" d="M619 0L513 0L260 341L187 277L187 0L97 0L97 714L187 714L187 362Q217 396 248 430Q279 464 310 498L503 714L608 714L325 403Z"/><path transform="translate(619 0) scale(1 -1)" d="M434 148Q434 70 376 30Q318 -10 220 -10Q164 -10 123.5 -1Q83 8 52 24L52 104Q84 88 129.5 74.5Q175 61 222 61Q289 61 319 82.5Q349 104 349 140Q349 160 338 176Q327 192 298.5 208Q270 224 217 244Q165 264 128 284Q91 304 71 332Q51 360 51 404Q51 472 106.5 509Q162 546 252 546Q301 546 343.5 536.5Q386 527 423 510L393 440Q359 454 322 464Q285 474 246 474Q192 474 163.5 456.5Q135 439 135 409Q135 387 148 371.5Q161 356 191.5 341.5Q222 327 273 307Q324 288 360 268Q396 248 415 219.5Q434 191 434 148Z"/><path transform="translate(1098 0) scale(1 -1)" d="M173 537Q173 497 168 462L174 462Q200 503 244.5 524Q289 545 341 545Q439 545 488 498.5Q537 452 537 349L537 0L450 0L450 343Q450 472 330 472Q240 472 206.5 421.5Q173 371 173 277L173 0L85 0L85 760L173 760Z"/></g></svg>
