<svg xmlns="http://www.w3.org/2000/svg" width="0.974em" height=".75em" viewBox="97 -714 940 724" aria-hidden="true" focusable="false"><g fill="currentColor"><path transform="translate(0 0) scale(1 -1)" d="M97 0L97 714L187 714L187 80L499 80L499 0Z"/><path transform="translate(524 0) scale(1 -1)" d="M292 546Q361 546 410.5 516Q460 486 486.5 431.5Q513 377 513 304L513 251L146 251Q148 160 192.5 112.5Q237 65 317 65Q368 65 407.5 74.5Q447 84 489 102L489 25Q448 7 408 -1.5Q368 -10 313 -10Q237 -10 178.5 21Q120 52 87.5 113.5Q55 175 55 264Q55 352 84.5 415Q114 478 167.5 512Q221 546 292 546ZM291 474Q228 474 191.5 433.5Q155 393 148 321L421 321Q420 389 389 431.5Q358 474 291 474Z"/></g></svg>
